<svg width="64" height="64" viewBox="0 0 64 64" fill="none" xmlns="http://www.w3.org/2000/svg">
  <!-- Background circle with gradient -->
  <defs>
    <linearGradient id="bgGradient" x1="0%" y1="0%" x2="100%" y2="100%">
      <stop offset="0%" style="stop-color:#3B82F6;stop-opacity:1" />
      <stop offset="100%" style="stop-color:#1D4ED8;stop-opacity:1" />
    </linearGradient>
    <linearGradient id="shieldGradient" x1="0%" y1="0%" x2="100%" y2="100%">
      <stop offset="0%" style="stop-color:#FFFFFF;stop-opacity:1" />
      <stop offset="100%" style="stop-color:#E5E7EB;stop-opacity:1" />
    </linearGradient>
    <linearGradient id="flowGradient" x1="0%" y1="0%" x2="100%" y2="100%">
      <stop offset="0%" style="stop-color:#10B981;stop-opacity:1" />
      <stop offset="100%" style="stop-color:#059669;stop-opacity:1" />
    </linearGradient>
  </defs>
  
  <!-- Background circle -->
  <circle cx="32" cy="32" r="32" fill="url(#bgGradient)"/>
  
  <!-- Shield shape -->
  <path d="M32 8L44 16V32C44 40.8366 36.8366 48 28 48C19.1634 48 12 40.8366 12 32V16L20 8L32 8Z" fill="url(#shieldGradient)" stroke="#1D4ED8" stroke-width="1"/>
  
  <!-- Inner shield -->
  <path d="M32 12L40 18V32C40 38.6274 34.6274 44 28 44C21.3726 44 16 38.6274 16 32V18L24 12L32 12Z" fill="none" stroke="#3B82F6" stroke-width="2"/>
  
  <!-- Flow arrows -->
  <path d="M20 24L28 32L20 40" stroke="url(#flowGradient)" stroke-width="4" stroke-linecap="round" stroke-linejoin="round" fill="none"/>
  <path d="M36 24L44 32L36 40" stroke="url(#flowGradient)" stroke-width="4" stroke-linecap="round" stroke-linejoin="round" fill="none"/>
  
  <!-- Central dot -->
  <circle cx="32" cy="32" r="4" fill="url(#flowGradient)"/>
  
  <!-- Security checkmark -->
  <path d="M24 28L28 32L40 20" stroke="#10B981" stroke-width="3" stroke-linecap="round" stroke-linejoin="round" fill="none"/>
</svg>
