<svg width="32" height="32" viewBox="0 0 32 32" fill="none" xmlns="http://www.w3.org/2000/svg">
  <!-- Background circle with gradient -->
  <defs>
    <linearGradient id="bgGradient" x1="0%" y1="0%" x2="100%" y2="100%">
      <stop offset="0%" style="stop-color:#3B82F6;stop-opacity:1" />
      <stop offset="100%" style="stop-color:#1D4ED8;stop-opacity:1" />
    </linearGradient>
    <linearGradient id="shieldGradient" x1="0%" y1="0%" x2="100%" y2="100%">
      <stop offset="0%" style="stop-color:#FFFFFF;stop-opacity:1" />
      <stop offset="100%" style="stop-color:#E5E7EB;stop-opacity:1" />
    </linearGradient>
    <linearGradient id="flowGradient" x1="0%" y1="0%" x2="100%" y2="100%">
      <stop offset="0%" style="stop-color:#10B981;stop-opacity:1" />
      <stop offset="100%" style="stop-color:#059669;stop-opacity:1" />
    </linearGradient>
  </defs>
  
  <!-- Background circle -->
  <circle cx="16" cy="16" r="16" fill="url(#bgGradient)"/>
  
  <!-- Shield shape -->
  <path d="M16 4L22 8V16C22 20.4183 18.4183 24 14 24C9.58172 24 6 20.4183 6 16V8L12 4L16 4Z" fill="url(#shieldGradient)" stroke="#1D4ED8" stroke-width="0.5"/>
  
  <!-- Inner shield -->
  <path d="M16 6L20 9V16C20 19.3137 17.3137 22 14 22C10.6863 22 8 19.3137 8 16V9L12 6L16 6Z" fill="none" stroke="#3B82F6" stroke-width="1"/>
  
  <!-- Flow arrows -->
  <path d="M10 12L14 16L10 20" stroke="url(#flowGradient)" stroke-width="2" stroke-linecap="round" stroke-linejoin="round" fill="none"/>
  <path d="M18 12L22 16L18 20" stroke="url(#flowGradient)" stroke-width="2" stroke-linecap="round" stroke-linejoin="round" fill="none"/>
  
  <!-- Central dot -->
  <circle cx="16" cy="16" r="2" fill="url(#flowGradient)"/>
  
  <!-- Security checkmark -->
  <path d="M12 14L14 16L20 10" stroke="#10B981" stroke-width="1.5" stroke-linecap="round" stroke-linejoin="round" fill="none"/>
</svg>
